<svg xmlns="http://www.w3.org/2000/svg" xmlns:xlink="http://www.w3.org/1999/xlink" version="1.1" x="0px" y="0px" width="100px" height="100px" viewBox="0 0 100 100" enable-background="new 0 0 100 100" xml:space="preserve">
<g id="Captions">
	<rect x="-192" width="185" height="99"/>
	<rect y="-36" width="100" height="30"/>
	<text transform="matrix(1 0 0 1 66 -19.5)" fill="#000000" font-family="'Helvetica'" font-size="2.4">http://thenounproject.com</text>
	<text transform="matrix(1 0 0 1 7.166 -24.5)"><tspan x="0" y="0" fill="#000000" font-family="'Helvetica-Bold'" font-size="6.1578">The Noun Project</tspan><tspan x="1.12" y="4.8" fill="#000000" font-family="'Helvetica-Bold'" font-size="4">Icon Template</tspan></text>
	<text transform="matrix(1 0 0 1 -178.5 10.5)" fill="#000000" font-family="'Helvetica-Bold'" font-size="6.1578">Reminders</text>
	<line fill="#000000" stroke="#FFFFFF" stroke-miterlimit="10" x1="8" y1="-14.5" x2="18" y2="-14.5"/>
	<line fill="#000000" stroke="#FFFFFF" stroke-miterlimit="10" x1="-179" y1="16.5" x2="-162" y2="16.5"/>
	<g>
		<g>
			<g>
				<rect x="-170.802" y="31.318" fill="#000000" width="8.721" height="8.642"/>
				<path fill="#000000" d="M-164.455,42.312h4.747v-4.703h-4.747V42.312z M-159.266,42.749h-5.63V37.17h5.63V42.749      L-159.266,42.749z M-166.221,44.062h8.279v-8.203h-8.279V44.062L-166.221,44.062z M-157.5,44.5h-9.163v-9.079h9.163V44.5      L-157.5,44.5z"/>
				<polygon fill="#000000" points="-166.149,44.133 -166.292,43.991 -158.013,35.787 -157.871,35.929     "/>
			</g>
		</g>
	</g>
	<rect x="-179" y="58" fill="none" width="35" height="32.5"/>
	<text transform="matrix(1 0 0 1 -179 60.1572)"><tspan x="0" y="0" fill="#000000" font-family="'Helvetica-Bold'" font-size="3">Strokes</tspan><tspan x="0" y="5" fill="#000000" font-family="'Helvetica'" font-size="2.4">Try to keep strokes at 4px</tspan><tspan x="0" y="10" fill="#000000" font-family="'Helvetica'" font-size="2.4">Minimum stroke weight is 2px</tspan><tspan x="0" y="14.5" fill="#000000" font-family="'Helvetica'" font-size="2.4">For thicker strokes use even </tspan><tspan x="0" y="17.5" fill="#000000" font-family="'Helvetica'" font-size="2.4">numbers: 6px, 8px etc.</tspan><tspan x="0" y="22" fill="#000000" font-family="'Helvetica-Bold'" font-size="2.4">Remember to expand strokes </tspan><tspan x="0" y="25" fill="#000000" font-family="'Helvetica-Bold'" font-size="2.4">before saving as an SVG </tspan></text>
	<rect x="-136.5" y="58" fill="none" width="35" height="32.5"/>
	<text transform="matrix(1 0 0 1 -136.5 60.1572)"><tspan x="0" y="0" fill="#000000" font-family="'Helvetica-Bold'" font-size="3">Size</tspan><tspan x="0" y="5" fill="#000000" font-family="'Helvetica'" font-size="2.4">Cannot be wider or taller than </tspan><tspan x="0" y="8.5" fill="#000000" font-family="'Helvetica'" font-size="2.4">100px (artboard size)</tspan><tspan x="0" y="13.5" fill="#000000" font-family="'Helvetica'" font-size="2.4">Scale your icon to fill as much of </tspan><tspan x="0" y="16.5" fill="#000000" font-family="'Helvetica'" font-size="2.4">the artboard as possible</tspan></text>
	<rect x="-94" y="58" fill="none" width="35" height="32.5"/>
	<text transform="matrix(1 0 0 1 -94 60.1572)"><tspan x="0" y="0" fill="#000000" font-family="'Helvetica-Bold'" font-size="3">Ungroup</tspan><tspan x="0" y="5" fill="#000000" font-family="'Helvetica'" font-size="2.4">If your design has more than one </tspan><tspan x="0" y="8" fill="#000000" font-family="'Helvetica'" font-size="2.4">shape, make sure to ungroup</tspan></text>
	<rect x="-50" y="58" fill="none" width="35" height="32.5"/>
	<text transform="matrix(1 0 0 1 -50 60.1572)"><tspan x="0" y="0" fill="#000000" font-family="'Helvetica-Bold'" font-size="3">Save as</tspan><tspan x="0" y="5" fill="#000000" font-family="'Helvetica'" font-size="2.4">Save as .SVG and make sure </tspan><tspan x="0" y="8" fill="#000000" font-family="'Helvetica'" font-size="2.4">&#8220;Use Artboards&#8221; is checked</tspan></text>
	<text transform="matrix(1.0074 0 0 1 -125.542 30.5933)" fill="#000000" font-family="'Helvetica'" font-size="2.5731">100px</text>
	<text transform="matrix(1.0074 0 0 1 -41 39)" fill="#000000" font-family="'Helvetica-Bold'" font-size="5.1462">.SVG</text>
	<rect x="-126.514" y="34.815" fill="#000000" width="10.261" height="10.185"/>
	<rect x="-126.477" y="31.766" fill="#000000" width="0.522" height="2.337"/>
	<rect x="-116.812" y="31.766" fill="#000000" width="0.523" height="2.337"/>
	<rect x="-127" y="32.337" fill="#000000" width="11.233" height="0.572"/>
	<g>
		<rect x="-83.805" y="33.844" fill="#000000" width="10.305" height="10.156"/>
		<rect x="-76.809" y="28.707" fill="#000000" width="3.308" height="3.261"/>
	</g>
	<rect x="-178.5" y="22.5" fill="#000000" stroke="#FFFFFF" stroke-miterlimit="10" width="30" height="30"/>
	<rect x="-136.5" y="22.5" fill="#000000" stroke="#FFFFFF" stroke-miterlimit="10" width="30" height="30"/>
	<rect x="-93.5" y="22.5" fill="#000000" stroke="#FFFFFF" stroke-miterlimit="10" width="30" height="30"/>
	<rect x="-49.5" y="22.5" fill="#000000" stroke="#FFFFFF" stroke-miterlimit="10" width="30" height="30"/>
</g>
<g id="Your_Icon">
	<g>
		<path fill="#000000" d="M17.503,51.51h-6.483c-0.552,0-1-0.447-1-1v-6.481c0-0.552,0.448-1,1-1h6.483c0.552,0,1,0.448,1,1v6.481    C18.503,51.062,18.056,51.51,17.503,51.51z M12.021,49.51h4.483v-4.481h-4.483V49.51z"/>
		<path fill="#000000" d="M27.804,51.51h-6.482c-0.552,0-1-0.447-1-1v-6.481c0-0.552,0.448-1,1-1h6.482c0.552,0,1,0.448,1,1v6.481    C28.804,51.062,28.356,51.51,27.804,51.51z M22.321,49.51h4.482v-4.481h-4.482V49.51z"/>
		<path fill="#000000" d="M38.105,51.51h-6.483c-0.552,0-1-0.447-1-1v-6.481c0-0.552,0.448-1,1-1h6.483c0.552,0,1,0.448,1,1v6.481    C39.105,51.062,38.658,51.51,38.105,51.51z M32.623,49.51h4.483v-4.481h-4.483V49.51z"/>
		<path fill="#000000" d="M48.407,51.51h-6.482c-0.552,0-1-0.447-1-1v-6.481c0-0.552,0.448-1,1-1h6.482c0.552,0,1,0.448,1,1v6.481    C49.407,51.062,48.959,51.51,48.407,51.51z M42.924,49.51h4.482v-4.481h-4.482V49.51z"/>
		<path fill="#000000" d="M58.709,51.51h-6.483c-0.553,0-1-0.447-1-1v-6.481c0-0.552,0.447-1,1-1h6.483c0.553,0,1,0.448,1,1v6.481    C59.709,51.062,59.262,51.51,58.709,51.51z M53.226,49.51h4.483v-4.481h-4.483V49.51z"/>
		<path fill="#000000" d="M69.01,51.51h-6.482c-0.553,0-1-0.447-1-1v-6.481c0-0.552,0.447-1,1-1h6.482c0.553,0,1,0.448,1,1v6.481    C70.01,51.062,69.562,51.51,69.01,51.51z M63.527,49.51h4.482v-4.481h-4.482V49.51z"/>
		<path fill="#000000" d="M79.311,51.51h-6.48c-0.553,0-1-0.447-1-1v-6.481c0-0.552,0.447-1,1-1h6.48c0.553,0,1,0.448,1,1v6.481    C80.311,51.062,79.863,51.51,79.311,51.51z M73.83,49.51h4.48v-4.481h-4.48V49.51z"/>
		<path fill="#000000" d="M89.612,51.51h-6.483c-0.553,0-1-0.447-1-1v-6.481c0-0.552,0.447-1,1-1h6.483c0.553,0,1,0.448,1,1v6.481    C90.612,51.062,90.165,51.51,89.612,51.51z M84.129,49.51h4.483v-4.481h-4.483V49.51z"/>
		<path fill="#000000" d="M17.503,63.143h-6.483c-0.552,0-1-0.447-1-1v-6.483c0-0.553,0.448-1,1-1h6.483c0.552,0,1,0.447,1,1v6.483    C18.503,62.695,18.056,63.143,17.503,63.143z M12.021,61.143h4.483v-4.483h-4.483V61.143z"/>
		<path fill="#000000" d="M27.804,63.143h-6.482c-0.552,0-1-0.447-1-1v-6.483c0-0.553,0.448-1,1-1h6.482c0.552,0,1,0.447,1,1v6.483    C28.804,62.695,28.356,63.143,27.804,63.143z M22.321,61.143h4.482v-4.483h-4.482V61.143z"/>
		<path fill="#000000" d="M38.105,63.143h-6.483c-0.552,0-1-0.447-1-1v-6.483c0-0.553,0.448-1,1-1h6.483c0.552,0,1,0.447,1,1v6.483    C39.105,62.695,38.658,63.143,38.105,63.143z M32.623,61.143h4.483v-4.483h-4.483V61.143z"/>
		<path fill="#000000" d="M48.407,63.143h-6.482c-0.552,0-1-0.447-1-1v-6.483c0-0.553,0.448-1,1-1h6.482c0.552,0,1,0.447,1,1v6.483    C49.407,62.695,48.959,63.143,48.407,63.143z M42.924,61.143h4.482v-4.483h-4.482V61.143z"/>
		<path fill="#000000" d="M58.709,63.143h-6.483c-0.553,0-1-0.447-1-1v-6.483c0-0.553,0.447-1,1-1h6.483c0.553,0,1,0.447,1,1v6.483    C59.709,62.695,59.262,63.143,58.709,63.143z M53.226,61.143h4.483v-4.483h-4.483V61.143z"/>
		<path fill="#000000" d="M69.01,63.143h-6.482c-0.553,0-1-0.447-1-1v-6.483c0-0.553,0.447-1,1-1h6.482c0.553,0,1,0.447,1,1v6.483    C70.01,62.695,69.562,63.143,69.01,63.143z M63.527,61.143h4.482v-4.483h-4.482V61.143z"/>
		<path fill="#000000" d="M79.311,63.143h-6.48c-0.553,0-1-0.447-1-1v-6.483c0-0.553,0.447-1,1-1h6.48c0.553,0,1,0.447,1,1v6.483    C80.311,62.695,79.863,63.143,79.311,63.143z M73.83,61.143h4.48v-4.483h-4.48V61.143z"/>
		<path fill="#000000" d="M89.612,63.143h-6.483c-0.553,0-1-0.447-1-1v-6.483c0-0.553,0.447-1,1-1h6.483c0.553,0,1,0.447,1,1v6.483    C90.612,62.695,90.165,63.143,89.612,63.143z M84.129,61.143h4.483v-4.483h-4.483V61.143z"/>
		<path fill="#000000" d="M17.503,74.61h-6.483c-0.552,0-1-0.447-1-1v-6.481c0-0.553,0.448-1,1-1h6.483c0.552,0,1,0.447,1,1v6.481    C18.503,74.163,18.056,74.61,17.503,74.61z M12.021,72.61h4.483v-4.481h-4.483V72.61z"/>
		<path fill="#000000" d="M27.804,74.61h-6.482c-0.552,0-1-0.447-1-1v-6.481c0-0.553,0.448-1,1-1h6.482c0.552,0,1,0.447,1,1v6.481    C28.804,74.163,28.356,74.61,27.804,74.61z M22.321,72.61h4.482v-4.481h-4.482V72.61z"/>
		<path fill="#000000" d="M79.311,74.61h-6.48c-0.553,0-1-0.447-1-1v-6.481c0-0.553,0.447-1,1-1h6.48c0.553,0,1,0.447,1,1v6.481    C80.311,74.163,79.863,74.61,79.311,74.61z M73.83,72.61h4.48v-4.481h-4.48V72.61z"/>
		<path fill="#000000" d="M89.612,74.61h-6.483c-0.553,0-1-0.447-1-1v-6.481c0-0.553,0.447-1,1-1h6.483c0.553,0,1,0.447,1,1v6.481    C90.612,74.163,90.165,74.61,89.612,74.61z M84.129,72.61h4.483v-4.481h-4.483V72.61z"/>
		<polygon fill="#000000" points="57.684,17.315 53.193,17.315 53.193,12.826 46.995,12.826 46.995,17.315 42.506,17.315     42.506,23.514 46.995,23.514 46.995,28.003 53.193,28.003 53.193,23.514 57.684,23.514   "/>
		<path fill="#000000" d="M65.769,92.5H35.578c-0.552,0-1-0.447-1-1V67.129c0-0.553,0.448-1,1-1h30.191c0.553,0,1,0.447,1,1V91.5    C66.769,92.053,66.321,92.5,65.769,92.5z M36.578,90.5h28.191V68.129H36.578V90.5z"/>
		<path fill="#000000" d="M98.755,38.384L92.97,19.291C92.777,18.661,92.195,18,91.536,18H64V9.708C64,8.051,62.681,7,61.023,7    H38.611C36.954,7,36,8.051,36,9.708V18H7.911c-0.659,0-1.241,0.661-1.434,1.291L0.691,38.269c-0.14,0.455-0.055,0.845,0.228,1.227    C1.202,39.879,1.649,40,2.125,40H4v52c0,0.828,1.07,2,1.899,2H93.55c0.828,0,1.45-1.172,1.45-2V40h2.321    c0.476,0,0.923-0.063,1.206-0.446C98.811,39.171,98.895,38.839,98.755,38.384z M39,10h22v22H39V10z M92,91H51V68h-2v23H7V40h85V91    z"/>
	</g>
</g>
</svg>