<?xml version="1.0" encoding="utf-8"?>
<!-- Generator: Adobe Illustrator 15.1.0, SVG Export Plug-In . SVG Version: 6.00 Build 0)  -->
<!DOCTYPE svg PUBLIC "-//W3C//DTD SVG 1.1//EN" "http://www.w3.org/Graphics/SVG/1.1/DTD/svg11.dtd">
<svg version="1.1" id="Layer_1" xmlns="http://www.w3.org/2000/svg" xmlns:xlink="http://www.w3.org/1999/xlink" x="0px" y="0px"
	 width="98.333px" height="100px" viewBox="0.833 -5.081 98.333 100" enable-background="new 0.833 -5.081 98.333 100"
	 xml:space="preserve">
<g>
	<path d="M50.925,34.269l0.102,0.003h0.115c10.517-0.085,19.042-8.984,18.999-19.833C70.007,3.636,61.292-5.121,50.714-5.081
		c-5.136,0.064-9.95,2.133-13.55,5.833c-3.653,3.756-5.628,8.724-5.552,13.99c0.008,5.345,2.07,10.319,5.797,14.016
		C41.04,32.356,45.847,34.312,50.925,34.269z"/>
</g>
<g>
	<path d="M82.839,94.843l16.328-0.019L87.984,57.979c-1.755-6.084-9.389-16.797-22.563-17.105h-5.843
		c0.029,0.1,0.094,0.185,0.109,0.287l0.086,0.455l-0.051,0.543c-0.139,1.513-1.372,3.365-3.757,5.578l4.091,26.458l-8.65,10.394
		l-3.616-4.257l-5.148-6.003l3.677-26.507c-2.415-2.165-3.68-4.002-3.858-5.604l-0.078-0.395l0.115-0.592
		c0.022-0.126,0.098-0.236,0.137-0.356l-7.479,0.001c-13.463,0.078-21.24,11.01-23,17.171L0.833,94.919l16.549-0.021l7.067-24.332
		l4.968-0.003L22.36,94.896l55.458-0.053L70.721,70.52l4.987-0.005L82.839,94.843z"/>
</g>
<path d="M53.503,45.944c2.917-2.598,3.23-3.848,3.254-4.154c0.014-0.054,0-0.076-0.002-0.083c-0.049-0.267-0.255-0.549-0.554-0.817
	c-0.361-0.324-0.864-0.635-1.453-0.893c-1.092-0.492-2.461-0.828-3.677-0.813c-1.185,0.002-2.528,0.353-3.6,0.848
	c-0.588,0.268-1.094,0.58-1.457,0.907c-0.318,0.282-0.53,0.578-0.588,0.866c0,0,0.002,0.015,0,0.039
	c0.013,0.229,0.221,1.47,3.326,4.139l0.75,0.646l-3.711,26.784l4.268,4.971l0.771,0.889l0.566,0.678l0.567-0.682l0.759-0.903
	l4.186-5.041l-4.135-26.726L53.503,45.944z"/>
</svg>
