<?xml version="1.0" encoding="utf-8"?>
<!-- Generator: Adobe Illustrator 15.0.0, SVG Export Plug-In . SVG Version: 6.00 Build 0)  -->
<!DOCTYPE svg PUBLIC "-//W3C//DTD SVG 1.1//EN" "http://www.w3.org/Graphics/SVG/1.1/DTD/svg11.dtd">
<svg version="1.1" id="Your_Icon" xmlns="http://www.w3.org/2000/svg" xmlns:xlink="http://www.w3.org/1999/xlink" x="0px" y="0px"
	 width="38.1px" height="95.209px" viewBox="0 0 38.1 95.209" enable-background="new 0 0 38.1 95.209" xml:space="preserve">
<path d="M19.01,0c0.062,0,0.124,0,0.187,0c0.239,0.486,0.226,1.079,0.258,1.658c0.032,0.605,0.047,1.237,0.047,1.855
	c0,1.259-0.101,2.485-0.188,3.624c-0.182,2.381-0.312,4.817-0.35,7.247c1.28-3.163,3.434-5.661,6.277-7.443
	c2.682-1.679,6.768-2.989,11.342-2.227c0.92,5.716-1.502,9.859-4.293,12.727c-0.695,0.714-1.582,1.376-2.498,1.964
	c-2.637,1.69-6.246,2.99-10.807,2.51c0.135,4.315,0.349,8.551,0.653,12.704c1.308-3.102,3.421-5.605,6.278-7.335
	c2.713-1.643,6.621-2.953,11.271-2.248c0.903,5.518-1.32,9.839-4.105,12.594c-1.449,1.435-3.194,2.618-5.297,3.494
	c-2.08,0.863-4.618,1.458-7.585,1.201c0.252,4.027,0.574,8.178,0.77,12.331c2.222-3.861,5.664-6.899,10.992-8.009
	c1.716-0.358,3.938-0.488,5.928-0.131c0.088,0.646,0.167,1.295,0.21,1.987c0,0.324,0,0.652,0,0.981
	c-0.019,0.002-0.024,0.019-0.021,0.042c-0.291,4.657-2.366,7.864-5.091,10.28c-2.715,2.41-6.443,4.145-11.762,4.019
	c0.009,4.25-0.142,8.353-0.49,12.269c0.023,0,0.048,0,0.07,0c3.821,0.058,7.76,0.004,11.365,0.261
	c-1.468,4.591-3.007,9.349-4.526,14.036c-0.424,1.306-0.956,2.732-1.331,4.081c-0.064,0.241-0.081,0.478-0.187,0.59
	c-0.191,0.211-1.378,0.11-1.938,0.11c-3.738,0-7.381,0-11.085,0c-0.63,0-1.315,0.084-1.867,0c-0.443-0.067-0.46-0.778-0.583-1.266
	C9.153,87.984,7.53,82.072,6.105,76.226c4.038-0.216,8.404-0.129,12.649-0.151c0.179-2.101,0.299-4.261,0.396-6.438
	c-4.559,0.472-8.159-0.828-10.805-2.531c-2.716-1.749-4.796-4.097-6.021-7.247c-0.798-2.047-1.268-4.775-0.726-7.467
	c4.667-0.697,8.616,0.607,11.319,2.295c2.851,1.777,5.002,4.254,6.277,7.422c-0.071-5.763-0.432-11.256-0.816-16.723
	c-2.978,0.473-5.9-0.019-8.075-0.808c-2.251-0.816-4.123-2.023-5.646-3.45c-1.515-1.414-2.797-3.199-3.643-5.303
	c-0.829-2.064-1.332-4.837-0.793-7.596c4.682-0.725,8.653,0.609,11.342,2.291c2.854,1.784,5.004,4.264,6.278,7.443
	c-0.435-5.777-0.805-11.615-0.933-17.681c-0.023,0-0.049,0-0.07,0c-2.903,0.073-5.266-0.543-7.258-1.44
	c-1.998-0.899-3.65-2.063-5.041-3.513c-1.354-1.41-2.528-3.11-3.291-5.152C0.504,8.182,0.094,5.524,0.618,2.949
	c1.876-0.32,4.021-0.229,5.67,0.086c4.981,0.961,8.36,3.615,10.619,7.074c0.042,0.065,0.095,0.208,0.14,0.151
	c0.181-1.877,0.114-3.8,0.444-5.609c0.147-0.817,0.366-1.632,0.604-2.445C18.304,1.509,18.602,0.483,19.01,0z"/>
</svg>
