<svg xmlns="http://www.w3.org/2000/svg" xmlns:xlink="http://www.w3.org/1999/xlink" version="1.1" id="Ebene_1" x="0px" y="0px" width="100.0px" height="100px" viewBox="0 0 512 512" enable-background="new 0 0 512 512" xml:space="preserve">
<g>
	<path d="M208,408H80c-13.233,0-24-10.767-24-24V256c0-13.233,10.767-24,24-24h48v16H80c-4.411,0-8,3.589-8,8v128   c0,4.411,3.589,8,8,8h128c4.411,0,8-3.589,8-8v-80h16v80C232,397.233,221.233,408,208,408z"/>
</g>
<g>
	<path d="M432,408H304c-13.233,0-24-10.767-24-24v-80h16v80c0,4.411,3.589,8,8,8h128c4.411,0,8-3.589,8-8V256c0-4.411-3.589-8-8-8   h-48v-16h48c13.233,0,24,10.767,24,24v128C456,397.233,445.233,408,432,408z"/>
</g>
<g>
	<circle cx="176" cy="352" r="12"/>
</g>
<g>
	<path d="M320,280H192c-13.233,0-24-10.767-24-24V128c0-13.233,10.767-24,24-24h128c13.233,0,24,10.767,24,24v128   C344,269.233,333.233,280,320,280z M192,120c-4.411,0-8,3.589-8,8v128c0,4.411,3.589,8,8,8h128c4.411,0,8-3.589,8-8V128   c0-4.411-3.589-8-8-8H192z"/>
</g>
<g>
	<circle cx="112" cy="288" r="12"/>
</g>
<g>
	<circle cx="368" cy="320" r="12"/>
</g>
<g>
	<circle cx="288" cy="160" r="12"/>
</g>
<g>
	<circle cx="288" cy="224" r="12"/>
</g>
<g>
	<circle cx="224" cy="160" r="12"/>
</g>
<g>
	<circle cx="224" cy="224" r="12"/>
</g>
</svg>