<svg xmlns="http://www.w3.org/2000/svg" xmlns:xlink="http://www.w3.org/1999/xlink" version="1.1" id="Your_Icon" x="0px" y="0px" width="100px" height="100px" viewBox="0 0 100 100" style="enable-background:new 0 0 100 100;" xml:space="preserve">
<path d="M37.389,31.527c0-1.978,1.62-3.601,3.604-3.601h18.015c1.984,0,3.604,1.623,3.604,3.601v64.861  c0,1.982-1.62,3.604-3.604,3.604H40.992c-1.983,0-3.604-1.621-3.604-3.604V31.527z M0.832,96.389c0,1.982,1.623,3.604,3.602,3.604  h18.023c1.975,0,3.602-1.621,3.602-3.604V58.387c0-1.989-1.627-3.604-3.602-3.604H4.434c-1.979,0-3.602,1.614-3.602,3.604V96.389z   M77.545-0.008c-1.976,0-3.603,1.613-3.603,3.604v92.793c0,1.982,1.627,3.604,3.603,3.604h18.022c1.979,0,3.602-1.621,3.602-3.604  V3.596c0-1.99-1.622-3.604-3.602-3.604H77.545z"/>
</svg>