<svg xmlns="http://www.w3.org/2000/svg" xmlns:xlink="http://www.w3.org/1999/xlink" version="1.1" id="Layer_1" x="0px" y="0px" width="100px" height="100px" viewBox="0 0 100 100" enable-background="new 0 0 100 100" xml:space="preserve">
<path fill="none" stroke="#000000" stroke-width="6" stroke-miterlimit="10" d="M94.982,49.888c0,24.78-20.083,44.862-44.862,44.862  c-24.778,0-44.861-20.082-44.861-44.862S25.342,5.025,50.12,5.025C74.899,5.025,94.982,25.107,94.982,49.888z"/>
<path d="M56.729,40.056l-5.684,26.84c-0.238,1.026-0.314,1.814-0.314,2.526c0,2.211,1.022,2.923,3.238,2.923  c1.416,0,2.052-0.235,2.525-0.471c-0.398,5.602-4.424,8.128-8.687,8.128c-4.737,0-8.448-2.841-8.448-9.476  c0-1.495,0.238-3.233,0.632-5.131l5.37-25.34H56.729z M53.177,19.543c3.473,0,6.316,2.84,6.316,6.312  c0,3.476-2.844,6.241-6.316,6.241c-3.476,0-6.236-2.765-6.236-6.241C46.94,22.383,49.701,19.543,53.177,19.543z"/>
</svg>