<?xml version="1.0" encoding="utf-8"?>
<!-- Generator: Adobe Illustrator 18.0.0, SVG Export Plug-In . SVG Version: 6.00 Build 0)  -->
<!DOCTYPE svg PUBLIC "-//W3C//DTD SVG 1.1//EN" "http://www.w3.org/Graphics/SVG/1.1/DTD/svg11.dtd">
<svg version="1.1" id="Your_Icon" xmlns="http://www.w3.org/2000/svg" xmlns:xlink="http://www.w3.org/1999/xlink" x="0px" y="0px"
	 viewBox="0 0 100 100" enable-background="new 0 0 100 100" xml:space="preserve">
<path stroke="#000000" stroke-width="7" stroke-miterlimit="10" d="M51.6,27.9c-0.5-0.6-1-1-1.6-1.5C45.6,22.4,40,20,34,20
	C19.7,20,8,33.5,8,50s11.7,30,26,30c6,0,11.6-2.4,16-6.3c0.5-0.5,1.1-1,1.6-1.5C56.7,66.6,60,58.8,60,50S56.7,33.4,51.6,27.9z
	 M50,70.7c-0.5,0.5-1,1-1.6,1.5c-4,3.5-9,5.5-14.4,5.5c-13.2,0-24-12.5-24-27.7s10.8-27.7,24-27.7c5.4,0,10.4,2.1,14.4,5.5
	c0.5,0.5,1.1,0.9,1.6,1.5c4.9,5.1,8,12.5,8,20.7S54.9,65.6,50,70.7z"/>
<path fill="none" d="M56,50c0-5.3-3.1-10.1-8-13.4c-4.9,3.3-8,8.1-8,13.4s3.1,10.1,8,13.4C52.9,60.1,56,55.3,56,50z"/>
<path stroke="#000000" stroke-width="7" stroke-miterlimit="10" d="M65.5,20c-5.2,0.1-10.5,2.2-13.7,5.1c-0.5,0.5-1.2,1-1.2,1
	l1.5,1.4c3.7-2.9,8.7-5.1,13.4-5.2C78.8,22.1,89.7,34.2,90,49.4c0.2,15.3-10.3,27.9-23.5,28.3C61,77.8,56,75.8,51.9,72.4
	c-0.5-0.5-1.1-0.9-1.6-1.5c-5-5-8.2-12.2-8.3-20.4s2.8-15.6,7.7-20.8c-0.5-0.5-1-1-1.6-1.5C43,33.8,39.9,41.8,40,50.6
	s3.5,16.5,8.8,21.9c0.5,0.5,1,1,1.6,1.5c4.5,3.9,10.1,6.1,16.1,6C80.8,79.6,92.3,65.9,92,49.4S79.8,19.7,65.5,20z"/>
</svg>
