<svg xmlns="http://www.w3.org/2000/svg" xmlns:xlink="http://www.w3.org/1999/xlink" version="1.1" id="Your_Icon" x="0px" y="0px" width="100px" height="100px" viewBox="0 0 100 100" enable-background="new 0 0 100 100" xml:space="preserve">
<g>
	<polygon points="88.548,64.244 88.557,67.176 72.541,76.422 66.137,80.119 50.126,89.363 50.001,45.238 50.001,45.238    49.875,89.363 33.865,80.119 33.896,69.08 33.891,69.076 33.87,76.385 27.471,72.691 27.46,76.422 11.445,67.176 11.454,64.203    0,70.859 50.161,99.82 100,70.855  "/>
	<path d="M27.46,76.422l0.011-3.73l-0.004-0.004l-0.425-7.363L33,69.021v0.055l0.45,0.004l0.192,11.039l16.121,9.244l0.181-44.125   l0.025,0.002L17.07,26.2l-5.506-3.183l-0.113,41.186l-0.008,2.973L27.46,76.422z M46.687,83.84l-6.408-3.699l0.021-7.363   l6.409,3.699L46.687,83.84z M46.729,69.119l-6.408-3.701l0.021-7.357l6.408,3.701L46.729,69.119z M46.791,47.039l-0.021,7.357   l-6.408-3.699l0.021-7.358L46.791,47.039z M27.576,35.945l6.403,3.697L33.958,47l-6.403-3.697L27.576,35.945z M33.938,54.363   l-0.021,7.359l-6.404-3.697l0.021-7.358L33.938,54.363z M14.764,28.548l6.403,3.697l-0.021,7.358l-6.403-3.697L14.764,28.548z    M14.722,43.27l6.403,3.697l-0.021,7.358l-6.403-3.697L14.722,43.27z M21.084,61.684l-0.021,7.363L14.66,65.35l0.021-7.363   L21.084,61.684z"/>
	<polygon points="59.619,43.339 53.211,47.04 53.231,54.396 59.64,50.697  "/>
	<polygon points="66.043,47 72.446,43.303 72.426,35.945 66.022,39.643  "/>
	<polygon points="85.258,35.907 85.237,28.549 78.834,32.246 78.854,39.604  "/>
	<polygon points="59.66,58.056 53.253,61.756 53.273,69.119 59.681,65.418  "/>
	<polygon points="66.063,54.358 66.085,61.723 72.488,58.025 72.468,50.661  "/>
	<polygon points="78.896,54.325 85.3,50.628 85.279,43.265 78.876,46.962  "/>
	<polygon points="53.294,76.477 53.315,83.834 59.723,80.135 59.702,72.777  "/>
	<polygon points="66.105,69.08 66.137,80.119 72.541,76.422 72.509,65.383  "/>
	<polygon points="78.917,61.684 78.938,69.041 85.342,65.344 85.32,57.986  "/>
	<polygon points="49.837,3.238 81.445,21.487 84.089,19.951 49.845,0.18  "/>
	<polygon points="18.455,21.476 49.837,3.238 49.845,0.18 15.819,19.954  "/>
	<polygon points="49.997,45.24 50.005,42.183 11.576,19.952 11.567,23.008 17.084,26.2  "/>
</g>
</svg>