<svg xmlns="http://www.w3.org/2000/svg" xmlns:xlink="http://www.w3.org/1999/xlink" version="1.1" id="Layer_1" x="0px" y="0px" width="100px" height="100px" viewBox="0 0 100 100" enable-background="new 0 0 100 100" xml:space="preserve">
<path d="M69.172,11.265c-0.191-0.192-0.502-0.192-0.695,0L11.639,68.029c-0.192,0.191-0.192,0.501,0,0.692l19.207,19.184  c0.096,0.095,0.222,0.143,0.348,0.143c0.125,0,0.251-0.048,0.347-0.143L88.38,31.14c0.093-0.092,0.145-0.216,0.145-0.347  s-0.052-0.255-0.145-0.347L69.172,11.265z"/>
<path d="M96.846,9.12l-6.319-6.311C88.713,0.998,86.301,0,83.735,0c-2.564,0-4.977,0.998-6.79,2.809L70.626,9.12  c-0.093,0.092-0.145,0.216-0.145,0.347c0,0.13,0.052,0.254,0.145,0.346l19.207,19.182c0.092,0.092,0.218,0.144,0.348,0.144  c0.131,0,0.255-0.052,0.346-0.144l6.319-6.311c1.814-1.812,2.813-4.22,2.813-6.783C99.659,13.34,98.66,10.932,96.846,9.12z"/>
<path d="M10.358,69.967c-0.122-0.121-0.296-0.172-0.464-0.129c-0.167,0.04-0.3,0.165-0.351,0.33l-9.18,29.195  c-0.055,0.178-0.006,0.369,0.127,0.498C0.584,99.952,0.707,100,0.832,100c0.054,0,0.11-0.011,0.164-0.029l28.387-10.012  c0.159-0.056,0.278-0.188,0.315-0.354c0.037-0.164-0.012-0.337-0.132-0.455L10.358,69.967z"/>
</svg>